<svg xmlns="http://www.w3.org/2000/svg" xmlns:xlink="http://www.w3.org/1999/xlink" width="210px" height="216px">
<defs>
<linearGradient id="PSgrad_0" x1="0%" x2="0%" y1="0%" y2="100%">
  <stop offset="0%" stop-color="rgb(245,245,244)" stop-opacity="1"/>
  <stop offset="100%" stop-color="rgb(227,227,230)" stop-opacity="1"/>
</linearGradient>
<linearGradient id="PSgrad_1" x1="0%" x2="0%" y1="0%" y2="100%">
  <stop offset="0%" stop-color="rgb(245,245,245)" stop-opacity="1"/>
  <stop offset="72%" stop-color="rgb(211,211,212)" stop-opacity="1"/>
  <stop offset="100%" stop-color="rgb(177,177,179)" stop-opacity="1"/>
</linearGradient>

</defs>
<path fill-rule="evenodd" fill="url(#PSgrad_0)" d="M45.000,-0.000 L165.000,-0.000 C189.853,-0.000 210.000,20.147 210.000,45.000 L210.000,165.000 C210.000,189.853 189.853,210.000 165.000,210.000 L45.000,210.000 C20.147,210.000 -0.000,189.853 -0.000,165.000 L-0.000,45.000 C-0.000,20.147 20.147,-0.000 45.000,-0.000 Z"/>
<path fill-rule="evenodd" fill="url(#PSgrad_1)" d="M45.000,209.000 L165.000,209.000 C189.853,209.000 210.000,183.080 210.000,165.909 L210.000,166.000 C210.000,190.853 189.853,216.000 165.000,216.000 L45.000,216.000 C20.147,216.000 -0.000,190.853 -0.000,166.000 L-0.000,165.909 C-0.000,183.080 20.147,209.000 45.000,209.000 Z"/>
<path fill-rule="evenodd" fill="rgb(15, 15, 15)" d="M141.500,164.000 C129.626,164.000 120.000,154.374 120.000,142.500 C120.000,130.626 129.626,121.000 141.500,121.000 C153.374,121.000 163.000,130.626 163.000,142.500 C163.000,154.374 153.374,164.000 141.500,164.000 ZM68.500,89.000 C56.626,89.000 47.000,79.374 47.000,67.500 C47.000,55.626 56.626,46.000 68.500,46.000 C80.374,46.000 90.000,55.626 90.000,67.500 C90.000,79.374 80.374,89.000 68.500,89.000 Z"/>
</svg>