<svg xmlns="http://www.w3.org/2000/svg" xmlns:xlink="http://www.w3.org/1999/xlink" width="210px" height="216px">
<defs>
<linearGradient id="PSgrad_0" x1="0%" x2="0%" y1="0%" y2="100%">
  <stop offset="0%" stop-color="rgb(245,245,244)" stop-opacity="1"/>
  <stop offset="100%" stop-color="rgb(227,227,230)" stop-opacity="1"/>
</linearGradient>
<linearGradient id="PSgrad_1" x1="0%" x2="0%" y1="0%" y2="100%">
  <stop offset="0%" stop-color="rgb(245,245,245)" stop-opacity="1"/>
  <stop offset="72%" stop-color="rgb(211,211,212)" stop-opacity="1"/>
  <stop offset="100%" stop-color="rgb(177,177,179)" stop-opacity="1"/>
</linearGradient>

</defs>
<path fill-rule="evenodd" fill="url(#PSgrad_0)" d="M45.000,-0.000 L165.000,-0.000 C189.853,-0.000 210.000,20.147 210.000,45.000 L210.000,165.000 C210.000,189.853 189.853,210.000 165.000,210.000 L45.000,210.000 C20.147,210.000 -0.000,189.853 -0.000,165.000 L-0.000,45.000 C-0.000,20.147 20.147,-0.000 45.000,-0.000 Z"/>
<path fill-rule="evenodd" fill="url(#PSgrad_1)" d="M45.000,209.000 L165.000,209.000 C189.853,209.000 210.000,183.080 210.000,165.909 L210.000,166.000 C210.000,190.853 189.853,216.000 165.000,216.000 L45.000,216.000 C20.147,216.000 -0.000,190.853 -0.000,166.000 L-0.000,165.909 C-0.000,183.080 20.147,209.000 45.000,209.000 Z"/>
<path fill-rule="evenodd" fill="rgb(15, 15, 15)" d="M142.000,126.000 C130.402,126.000 121.000,116.598 121.000,105.000 C121.000,93.402 130.402,84.000 142.000,84.000 C153.598,84.000 163.000,93.402 163.000,105.000 C163.000,116.598 153.598,126.000 142.000,126.000 ZM142.000,76.000 C130.402,76.000 121.000,66.598 121.000,55.000 C121.000,43.402 130.402,34.000 142.000,34.000 C153.598,34.000 163.000,43.402 163.000,55.000 C163.000,66.598 153.598,76.000 142.000,76.000 ZM69.000,176.000 C57.402,176.000 48.000,166.598 48.000,155.000 C48.000,143.402 57.402,134.000 69.000,134.000 C80.598,134.000 90.000,143.402 90.000,155.000 C90.000,166.598 80.598,176.000 69.000,176.000 ZM69.000,126.000 C57.402,126.000 48.000,116.598 48.000,105.000 C48.000,93.402 57.402,84.000 69.000,84.000 C80.598,84.000 90.000,93.402 90.000,105.000 C90.000,116.598 80.598,126.000 69.000,126.000 ZM69.000,76.000 C57.402,76.000 48.000,66.598 48.000,55.000 C48.000,43.402 57.402,34.000 69.000,34.000 C80.598,34.000 90.000,43.402 90.000,55.000 C90.000,66.598 80.598,76.000 69.000,76.000 ZM142.000,134.000 C153.598,134.000 163.000,143.402 163.000,155.000 C163.000,166.598 153.598,176.000 142.000,176.000 C130.402,176.000 121.000,166.598 121.000,155.000 C121.000,143.402 130.402,134.000 142.000,134.000 Z"/>
</svg>