<svg xmlns="http://www.w3.org/2000/svg" xmlns:xlink="http://www.w3.org/1999/xlink" width="210px" height="216px">
<defs>
<linearGradient id="PSgrad_0" x1="0%" x2="0%" y1="0%" y2="100%">
  <stop offset="0%" stop-color="rgb(245,245,244)" stop-opacity="1"/>
  <stop offset="100%" stop-color="rgb(227,227,230)" stop-opacity="1"/>
</linearGradient>
<linearGradient id="PSgrad_1" x1="0%" x2="0%" y1="0%" y2="100%">
  <stop offset="0%" stop-color="rgb(245,245,245)" stop-opacity="1"/>
  <stop offset="72%" stop-color="rgb(211,211,212)" stop-opacity="1"/>
  <stop offset="100%" stop-color="rgb(177,177,179)" stop-opacity="1"/>
</linearGradient>

</defs>
<path fill-rule="evenodd" fill="url(#PSgrad_0)" d="M45.000,-0.000 L165.000,-0.000 C189.853,-0.000 210.000,20.147 210.000,45.000 L210.000,165.000 C210.000,189.853 189.853,210.000 165.000,210.000 L45.000,210.000 C20.147,210.000 -0.000,189.853 -0.000,165.000 L-0.000,45.000 C-0.000,20.147 20.147,-0.000 45.000,-0.000 Z"/>
<path fill-rule="evenodd" fill="url(#PSgrad_1)" d="M45.000,209.000 L165.000,209.000 C189.853,209.000 210.000,183.080 210.000,165.909 L210.000,166.000 C210.000,190.853 189.853,216.000 165.000,216.000 L45.000,216.000 C20.147,216.000 -0.000,190.853 -0.000,166.000 L-0.000,165.909 C-0.000,183.080 20.147,209.000 45.000,209.000 Z"/>
<path fill-rule="evenodd" fill="rgb(15, 15, 15)" d="M142.000,89.000 C130.402,89.000 121.000,79.598 121.000,68.000 C121.000,56.402 130.402,47.000 142.000,47.000 C153.598,47.000 163.000,56.402 163.000,68.000 C163.000,79.598 153.598,89.000 142.000,89.000 ZM68.000,164.000 C56.402,164.000 47.000,154.598 47.000,143.000 C47.000,131.402 56.402,122.000 68.000,122.000 C79.598,122.000 89.000,131.402 89.000,143.000 C89.000,154.598 79.598,164.000 68.000,164.000 ZM68.000,89.000 C56.402,89.000 47.000,79.598 47.000,68.000 C47.000,56.402 56.402,47.000 68.000,47.000 C79.598,47.000 89.000,56.402 89.000,68.000 C89.000,79.598 79.598,89.000 68.000,89.000 ZM142.000,122.000 C153.598,122.000 163.000,131.402 163.000,143.000 C163.000,154.598 153.598,164.000 142.000,164.000 C130.402,164.000 121.000,154.598 121.000,143.000 C121.000,131.402 130.402,122.000 142.000,122.000 Z"/>
</svg>