<svg xmlns="http://www.w3.org/2000/svg" xmlns:xlink="http://www.w3.org/1999/xlink" width="210px" height="216px">
<defs>
<linearGradient id="PSgrad_0" x1="0%" x2="0%" y1="0%" y2="100%">
  <stop offset="0%" stop-color="rgb(245,245,244)" stop-opacity="1"/>
  <stop offset="100%" stop-color="rgb(227,227,230)" stop-opacity="1"/>
</linearGradient>
<linearGradient id="PSgrad_1" x1="0%" x2="0%" y1="0%" y2="100%">
  <stop offset="0%" stop-color="rgb(245,245,245)" stop-opacity="1"/>
  <stop offset="72%" stop-color="rgb(211,211,212)" stop-opacity="1"/>
  <stop offset="100%" stop-color="rgb(177,177,179)" stop-opacity="1"/>
</linearGradient>

</defs>
<path fill-rule="evenodd" fill="url(#PSgrad_0)" d="M45.000,-0.000 L165.000,-0.000 C189.853,-0.000 210.000,20.147 210.000,45.000 L210.000,165.000 C210.000,189.853 189.853,210.000 165.000,210.000 L45.000,210.000 C20.147,210.000 -0.000,189.853 -0.000,165.000 L-0.000,45.000 C-0.000,20.147 20.147,-0.000 45.000,-0.000 Z"/>
<path fill-rule="evenodd" fill="url(#PSgrad_1)" d="M45.000,209.000 L165.000,209.000 C189.853,209.000 210.000,183.080 210.000,165.909 L210.000,166.000 C210.000,190.853 189.853,216.000 165.000,216.000 L45.000,216.000 C20.147,216.000 -0.000,190.853 -0.000,166.000 L-0.000,165.909 C-0.000,183.080 20.147,209.000 45.000,209.000 Z"/>
<path fill-rule="evenodd" fill="rgb(15, 15, 15)" d="M161.000,176.000 C149.402,176.000 140.000,166.598 140.000,155.000 C140.000,143.402 149.402,134.000 161.000,134.000 C172.598,134.000 182.000,143.402 182.000,155.000 C182.000,166.598 172.598,176.000 161.000,176.000 ZM106.000,126.000 C94.402,126.000 85.000,116.598 85.000,105.000 C85.000,93.402 94.402,84.000 106.000,84.000 C117.598,84.000 127.000,93.402 127.000,105.000 C127.000,116.598 117.598,126.000 106.000,126.000 ZM50.000,76.000 C38.402,76.000 29.000,66.598 29.000,55.000 C29.000,43.402 38.402,34.000 50.000,34.000 C61.598,34.000 71.000,43.402 71.000,55.000 C71.000,66.598 61.598,76.000 50.000,76.000 Z"/>
</svg>