<svg xmlns="http://www.w3.org/2000/svg" xmlns:xlink="http://www.w3.org/1999/xlink" width="210px" height="216px">
<defs>
<linearGradient id="PSgrad_0" x1="0%" x2="0%" y1="0%" y2="100%">
  <stop offset="0%" stop-color="rgb(245,245,244)" stop-opacity="1"/>
  <stop offset="100%" stop-color="rgb(227,227,230)" stop-opacity="1"/>
</linearGradient>
<linearGradient id="PSgrad_1" x1="0%" x2="0%" y1="0%" y2="100%">
  <stop offset="0%" stop-color="rgb(245,245,245)" stop-opacity="1"/>
  <stop offset="72%" stop-color="rgb(211,211,212)" stop-opacity="1"/>
  <stop offset="100%" stop-color="rgb(177,177,179)" stop-opacity="1"/>
</linearGradient>

</defs>
<path fill-rule="evenodd" fill="url(#PSgrad_0)" d="M45.000,-0.000 L165.000,-0.000 C189.853,-0.000 210.000,20.147 210.000,45.000 L210.000,165.000 C210.000,189.853 189.853,210.000 165.000,210.000 L45.000,210.000 C20.147,210.000 -0.000,189.853 -0.000,165.000 L-0.000,45.000 C-0.000,20.147 20.147,-0.000 45.000,-0.000 Z"/>
<path fill-rule="evenodd" fill="url(#PSgrad_1)" d="M45.000,209.000 L165.000,209.000 C189.853,209.000 210.000,183.080 210.000,165.909 L210.000,166.000 C210.000,190.853 189.853,216.000 165.000,216.000 L45.000,216.000 C20.147,216.000 -0.000,190.853 -0.000,166.000 L-0.000,165.909 C-0.000,183.080 20.147,209.000 45.000,209.000 Z"/>
<path fill-rule="evenodd" fill="rgb(15, 15, 15)" d="M155.000,76.000 C143.402,76.000 134.000,66.598 134.000,55.000 C134.000,43.402 143.402,34.000 155.000,34.000 C166.598,34.000 176.000,43.402 176.000,55.000 C176.000,66.598 166.598,76.000 155.000,76.000 ZM105.000,126.000 C93.402,126.000 84.000,116.598 84.000,105.000 C84.000,93.402 93.402,84.000 105.000,84.000 C116.598,84.000 126.000,93.402 126.000,105.000 C126.000,116.598 116.598,126.000 105.000,126.000 ZM55.000,176.000 C43.402,176.000 34.000,166.598 34.000,155.000 C34.000,143.402 43.402,134.000 55.000,134.000 C66.598,134.000 76.000,143.402 76.000,155.000 C76.000,166.598 66.598,176.000 55.000,176.000 ZM55.000,76.000 C43.402,76.000 34.000,66.598 34.000,55.000 C34.000,43.402 43.402,34.000 55.000,34.000 C66.598,34.000 76.000,43.402 76.000,55.000 C76.000,66.598 66.598,76.000 55.000,76.000 ZM155.000,134.000 C166.598,134.000 176.000,143.402 176.000,155.000 C176.000,166.598 166.598,176.000 155.000,176.000 C143.402,176.000 134.000,166.598 134.000,155.000 C134.000,143.402 143.402,134.000 155.000,134.000 Z"/>
</svg>