<?xml version="1.0" ?>
<!-- Uploaded to: SVG Repo, www.svgrepo.com, Generator: SVG Repo Mixer Tools -->
<svg width="800px" height="800px" viewBox="0 0 120 120" id="Layer_1" version="1.1" xml:space="preserve" xmlns="http://www.w3.org/2000/svg" xmlns:xlink="http://www.w3.org/1999/xlink">
<style type="text/css">
	.st0{fill:#F9E4C8;}
	.st1{fill:#F9CF93;}
	.st2{fill:#FFFFFF;}
	.st3{fill:#D8BD9C;}
</style>
<g>
<circle class="st0" cx="60" cy="60" r="47.7"/>
<circle class="st1" cx="60" cy="60" r="38.4"/>
<circle class="st0" cx="60" cy="60" r="6.7"/>
<g>
<path class="st2" d="M61.2,25.2h-2.4c-0.5,0-1,0.4-1,1v7.4c0,0.5,0.4,1,1,1h2.4c0.5,0,1-0.4,1-1v-7.4    C62.2,25.6,61.7,25.2,61.2,25.2z"/>
<path class="st2" d="M61.2,85.5h-2.4c-0.5,0-1,0.4-1,1v7.4c0,0.5,0.4,1,1,1h2.4c0.5,0,1-0.4,1-1v-7.4    C62.2,85.9,61.7,85.5,61.2,85.5z"/>
<path class="st2" d="M37.6,34.5c-0.4-0.4-1-0.4-1.4,0l-1.7,1.7c-0.4,0.4-0.4,1,0,1.4l5.2,5.2c0.4,0.4,1,0.4,1.4,0l1.7-1.7    c0.4-0.4,0.4-1,0-1.4L37.6,34.5z"/>
<path class="st2" d="M80.2,77.2c-0.4-0.4-1-0.4-1.4,0l-1.7,1.7c-0.4,0.4-0.4,1,0,1.4l5.2,5.2c0.4,0.4,1,0.4,1.4,0l1.7-1.7    c0.4-0.4,0.4-1,0-1.4L80.2,77.2z"/>
<path class="st2" d="M78.8,42.8c0.4,0.4,1,0.4,1.4,0l5.2-5.2c0.4-0.4,0.4-1,0-1.4l-1.7-1.7c-0.4-0.4-1-0.4-1.4,0l-5.2,5.2    c-0.4,0.4-0.4,1,0,1.4L78.8,42.8z"/>
<path class="st2" d="M41.2,77.2c-0.4-0.4-1-0.4-1.4,0l-5.2,5.2c-0.4,0.4-0.4,1,0,1.4l1.7,1.7c0.4,0.4,1,0.4,1.4,0l5.2-5.2    c0.4-0.4,0.4-1,0-1.4L41.2,77.2z"/>
<path class="st2" d="M34.5,58.8c0-0.5-0.4-1-1-1h-7.4c-0.5,0-1,0.4-1,1v2.4c0,0.5,0.4,1,1,1h7.4c0.5,0,1-0.4,1-1V58.8z"/>
<path class="st2" d="M93.8,57.8h-7.4c-0.5,0-1,0.4-1,1v2.4c0,0.5,0.4,1,1,1h7.4c0.5,0,1-0.4,1-1v-2.4    C94.8,58.3,94.4,57.8,93.8,57.8z"/>
</g>
<path class="st3" d="M60.4,63.6c-1.7,0-3-1.4-2.9-3.1l2.3-30.6h1.2l2.3,30.6C63.3,62.1,62,63.6,60.4,63.6L60.4,63.6z"/>
<path class="st3" d="M57.5,60.7c0,1.7,1.1,3,2.3,2.9L83,61.3v-1.2l-23.2-2.3C58.6,57.7,57.5,59,57.5,60.7L57.5,60.7z"/>
</g>
</svg>